<?xml version="1.0" standalone="no"?>
<!DOCTYPE svg PUBLIC "-//W3C//DTD SVG 20010904//EN"
 "http://www.w3.org/TR/2001/REC-SVG-20010904/DTD/svg10.dtd">
<svg version="1.0" xmlns="http://www.w3.org/2000/svg"
 width="4096.000000pt" height="4096.000000pt" viewBox="0 0 4096.000000 4096.000000"
 preserveAspectRatio="xMidYMid meet">
<metadata>
Created by potrace 1.14, written by Peter Selinger 2001-2017
</metadata>
<g transform="translate(0.000000,4096.000000) scale(0.100000,-0.100000)"
fill="#000000" stroke="none">
<path d="M10723 38452 c-24 -2 -43 -4 -43 -6 0 -1 68 -118 150 -260 83 -142
150 -260 150 -263 0 -4 6 -14 14 -22 7 -9 27 -41 43 -71 17 -30 102 -179 190
-330 88 -151 171 -295 185 -320 14 -25 121 -209 237 -409 116 -200 211 -365
211 -367 0 -2 15 -27 33 -56 19 -29 47 -78 64 -108 16 -30 58 -102 91 -158 34
-57 62 -106 62 -108 0 -2 17 -32 38 -66 21 -35 41 -70 45 -78 4 -8 16 -28 26
-45 17 -27 357 -612 403 -695 11 -19 53 -91 93 -160 40 -69 82 -141 93 -160
10 -19 109 -190 220 -380 110 -190 209 -361 219 -380 32 -55 270 -467 324
-558 27 -45 49 -85 49 -87 0 -3 15 -28 33 -57 19 -29 47 -78 64 -108 16 -30
118 -206 225 -390 107 -184 227 -391 267 -460 40 -69 76 -132 81 -140 50 -83
90 -153 90 -156 0 -2 25 -44 55 -95 30 -50 55 -95 55 -99 0 -4 8 -18 18 -31
11 -13 32 -49 49 -79 17 -30 54 -95 83 -145 29 -49 64 -110 78 -135 13 -25 28
-49 32 -55 4 -5 19 -30 32 -55 14 -25 67 -117 118 -205 51 -88 105 -180 119
-206 131 -229 115 -218 172 -114 18 33 49 87 69 120 20 33 39 67 43 75 4 8 15
29 26 45 10 17 116 199 235 405 307 528 445 766 668 1150 107 184 206 355 220
380 23 40 85 147 142 243 36 62 164 282 184 317 11 19 49 86 86 149 36 62 66
115 66 118 0 2 8 16 19 31 15 21 313 535 408 702 11 19 81 139 155 266 74 128
138 238 142 245 4 8 12 23 19 34 25 40 264 452 299 515 11 19 60 103 108 185
48 83 112 193 142 245 30 52 121 208 201 347 81 139 155 267 166 285 20 36
366 633 381 658 79 134 633 1090 634 1095 1 7 -8792 13 -8881 7z"/>
<path d="M21367 38452 c-9 -2 -17 -5 -17 -8 0 -4 208 -365 345 -599 91 -157
427 -738 453 -785 13 -25 28 -49 32 -55 4 -5 18 -28 30 -50 12 -22 81 -141
153 -265 189 -326 223 -386 231 -401 3 -8 15 -27 25 -44 10 -16 127 -219 261
-450 133 -231 257 -445 275 -475 18 -30 46 -78 62 -105 25 -45 198 -346 247
-428 10 -18 79 -138 154 -267 74 -129 158 -273 185 -320 28 -47 75 -128 105
-180 85 -149 87 -153 180 -313 49 -84 151 -260 227 -392 76 -132 157 -271 180
-310 22 -38 44 -77 48 -85 4 -8 17 -31 28 -50 32 -53 349 -599 377 -649 14
-25 38 -68 55 -95 16 -28 37 -64 47 -81 26 -46 265 -460 370 -640 51 -88 103
-179 116 -202 13 -23 54 -93 90 -155 37 -62 80 -138 97 -168 17 -30 38 -67 49
-82 10 -14 18 -31 18 -37 0 -30 24 2 104 142 48 83 92 159 97 167 30 50 159
272 159 275 0 1 17 32 38 66 22 35 50 84 64 109 25 43 107 185 218 375 29 50
64 110 78 135 14 24 49 84 78 133 30 49 54 92 54 95 0 3 18 33 40 68 22 35 40
66 40 69 0 2 16 29 35 60 20 30 39 63 42 73 4 9 24 44 45 77 21 33 38 65 38
72 0 6 4 13 8 15 4 2 19 23 33 48 40 71 63 111 161 278 50 86 115 198 143 247
29 50 110 189 180 310 71 121 144 247 163 280 19 33 43 75 53 93 11 17 27 47
38 65 75 130 223 385 230 397 5 8 42 71 82 140 40 69 118 204 175 300 56 96
111 191 121 210 35 62 113 194 123 210 6 8 13 22 17 30 7 14 183 319 202 350
6 8 32 53 59 100 27 47 65 112 84 145 86 147 362 623 380 655 81 143 214 370
229 392 11 15 19 29 19 31 0 2 70 125 156 273 213 365 250 429 258 445 3 8 15
28 26 44 10 17 25 41 33 55 15 29 213 371 287 495 26 44 58 100 72 125 l26 45
-4447 0 c-2446 0 -4455 -1 -4464 -3z"/>
<path d="M9780 37887 c-19 -34 -46 -81 -60 -104 -14 -23 -67 -115 -119 -205
-215 -371 -516 -888 -562 -966 -27 -45 -49 -86 -49 -90 0 -4 -5 -13 -12 -20
-11 -11 -48 -74 -96 -162 -11 -19 -50 -87 -87 -150 -62 -105 -335 -574 -375
-645 -10 -16 -47 -81 -84 -144 -36 -62 -66 -116 -66 -119 0 -3 -6 -13 -14 -21
-7 -9 -24 -36 -38 -61 -13 -25 -36 -64 -51 -87 -15 -24 -27 -45 -27 -48 0 -3
-27 -50 -60 -105 -33 -55 -60 -102 -60 -105 0 -3 -12 -24 -27 -48 -29 -46
-216 -366 -227 -388 -3 -8 -15 -29 -26 -47 -11 -18 -93 -158 -181 -310 -88
-152 -178 -306 -199 -342 -21 -36 -152 -261 -290 -500 -139 -239 -283 -487
-320 -550 -66 -112 -108 -185 -333 -575 -61 -104 -120 -206 -132 -225 -12 -19
-25 -42 -28 -50 -4 -8 -15 -28 -26 -45 -10 -16 -75 -129 -146 -250 -70 -121
-151 -260 -180 -310 -50 -85 -565 -974 -570 -985 -2 -3 2008 -5 4466 -5 2458
0 4469 3 4469 8 0 4 -11 25 -25 47 -14 22 -25 42 -25 44 0 2 -43 77 -95 167
-52 89 -95 163 -95 165 0 1 -27 48 -60 103 -33 56 -60 103 -60 105 0 3 -22 41
-50 86 -27 45 -50 83 -50 85 0 3 -155 272 -170 295 -5 8 -23 40 -40 70 -17 30
-40 71 -51 90 -20 33 -343 592 -379 655 -9 17 -43 75 -75 130 -32 55 -66 114
-75 130 -47 82 -181 313 -243 420 -38 66 -81 140 -95 165 -28 50 -268 466
-301 520 -11 19 -28 49 -37 65 -18 31 -387 673 -507 880 -39 66 -79 135 -89
154 -11 19 -139 242 -286 495 -146 254 -270 470 -276 481 -6 11 -16 27 -22 35
-6 8 -25 40 -41 70 -17 30 -53 95 -82 143 -28 49 -51 93 -51 98 0 5 -4 9 -10
9 -5 0 -10 4 -10 9 0 5 -35 69 -78 143 -43 74 -81 141 -85 149 -4 8 -17 30
-28 49 -12 19 -72 123 -134 230 -62 107 -122 211 -134 230 -11 19 -24 42 -28
50 -4 8 -59 104 -123 215 -64 110 -128 220 -142 245 -14 25 -67 117 -118 205
-51 88 -133 230 -182 315 -49 85 -93 158 -96 162 -4 4 -23 -21 -42 -55z"/>
<path d="M20421 37845 c-34 -58 -70 -120 -80 -138 -68 -121 -217 -377 -232
-399 -11 -15 -19 -29 -19 -32 0 -2 -19 -37 -43 -78 -24 -40 -105 -179 -179
-308 -75 -129 -323 -559 -553 -955 -229 -396 -426 -736 -437 -755 -11 -19 -32
-55 -46 -80 -14 -25 -72 -124 -128 -220 -56 -96 -112 -193 -124 -215 -12 -22
-55 -96 -95 -165 -40 -69 -198 -341 -351 -605 -152 -264 -285 -493 -295 -510
-11 -16 -23 -39 -29 -50 -5 -11 -22 -41 -37 -67 -15 -25 -51 -86 -79 -135 -28
-48 -77 -133 -109 -188 -66 -113 -255 -440 -324 -560 -25 -44 -50 -88 -56 -97
-5 -9 -28 -47 -49 -85 -22 -37 -102 -176 -179 -308 -77 -132 -151 -260 -165
-285 -14 -25 -45 -78 -69 -118 -24 -41 -43 -78 -43 -83 0 -5 -4 -9 -10 -9 -5
0 -10 -4 -10 -10 0 -8 -126 -229 -253 -445 -23 -38 -50 -86 -60 -105 -11 -19
-56 -98 -101 -175 -66 -112 -240 -413 -251 -435 -2 -3 2005 -5 4460 -5 3708 0
4462 2 4457 13 -2 7 -126 223 -275 480 -148 257 -281 487 -295 512 -14 25 -65
115 -115 200 -49 85 -115 199 -146 253 -31 54 -60 105 -66 115 -27 47 -145
252 -163 282 -11 19 -77 134 -147 255 -70 121 -141 245 -158 275 -16 30 -40
71 -51 90 -12 19 -27 44 -33 55 -29 49 -78 133 -93 160 -9 17 -129 224 -265
460 -136 237 -256 444 -265 460 -10 17 -93 161 -185 320 -92 160 -176 305
-187 323 -10 18 -53 93 -95 165 -42 73 -84 146 -93 162 -9 17 -23 41 -32 55
-8 14 -84 144 -168 290 -84 146 -161 279 -170 295 -22 38 -125 218 -155 270
-69 121 -276 482 -284 495 -5 8 -79 134 -163 280 -84 146 -157 273 -163 282
-5 9 -17 29 -26 45 -23 41 -201 348 -282 488 -38 66 -81 140 -95 165 -36 64
-273 474 -277 478 -1 1 -30 -45 -64 -103z"/>
<path d="M31124 37933 c-6 -10 -22 -38 -36 -63 -14 -25 -57 -99 -95 -165 -39
-66 -95 -163 -125 -215 -30 -52 -81 -140 -113 -195 -32 -55 -81 -140 -110
-190 -115 -200 -334 -579 -645 -1115 -180 -311 -361 -623 -402 -695 -41 -71
-157 -272 -258 -445 -101 -173 -191 -328 -200 -345 -9 -16 -43 -75 -75 -130
-32 -55 -99 -172 -150 -260 -51 -88 -215 -371 -365 -630 -150 -258 -281 -486
-292 -505 -11 -19 -46 -80 -78 -135 -32 -55 -67 -116 -78 -135 -10 -19 -93
-161 -182 -315 -90 -154 -172 -296 -183 -315 -22 -40 -288 -499 -475 -820 -68
-118 -134 -231 -145 -250 -10 -19 -62 -109 -115 -200 -151 -262 -198 -343
-258 -447 -31 -54 -60 -102 -65 -107 -5 -6 -9 -15 -9 -21 0 -7 1326 -10 4469
-10 l4470 0 -32 55 c-31 56 -62 110 -84 145 -24 41 -279 481 -306 529 -16 28
-49 84 -73 124 -24 40 -44 74 -44 77 0 2 -20 37 -44 78 -25 42 -78 133 -119
204 -60 104 -238 411 -358 619 -13 22 -70 121 -127 220 -115 199 -105 182
-165 284 -25 41 -55 93 -67 115 -24 43 -118 206 -353 610 -79 138 -153 266
-164 285 -11 19 -40 69 -65 110 -24 41 -47 82 -51 90 -4 8 -18 33 -32 55 -14
22 -28 47 -32 55 -4 8 -19 35 -33 60 -58 97 -148 252 -396 680 -338 585 -513
888 -534 925 -10 17 -50 86 -90 155 -40 68 -81 138 -90 155 -9 16 -68 118
-130 225 -62 107 -121 209 -130 225 -9 17 -54 93 -99 169 -44 76 -81 140 -81
141 0 2 -33 59 -73 126 -40 68 -76 131 -80 139 -4 8 -17 31 -28 50 -31 52
-329 565 -469 808 -67 116 -123 212 -124 212 0 0 -6 -8 -12 -17z"/>
<path d="M5504 29220 l-171 -5 244 -415 c134 -228 246 -422 250 -430 4 -8 43
-75 86 -150 44 -74 91 -155 105 -180 14 -25 40 -69 59 -98 18 -29 33 -54 33
-56 0 -2 43 -77 96 -167 53 -90 106 -182 119 -204 12 -22 118 -204 234 -404
117 -200 222 -380 234 -401 41 -70 252 -431 268 -458 9 -15 27 -47 41 -72 14
-25 62 -106 106 -181 44 -75 92 -157 106 -183 15 -26 78 -135 141 -242 63
-107 115 -197 115 -200 0 -3 9 -19 20 -34 17 -24 59 -95 104 -175 12 -21 291
-500 306 -525 33 -54 100 -172 100 -176 0 -3 8 -17 19 -32 10 -15 60 -99 111
-187 51 -88 101 -173 111 -190 10 -16 24 -41 32 -55 15 -28 29 -52 107 -185
29 -49 62 -106 72 -125 11 -19 68 -116 126 -215 274 -469 311 -532 329 -565
11 -19 116 -198 232 -398 117 -200 224 -385 238 -410 14 -26 33 -58 43 -72 19
-28 219 -372 265 -455 16 -30 33 -51 37 -47 3 4 38 61 76 127 38 66 169 293
292 505 123 212 231 399 240 415 10 17 148 255 307 530 159 275 325 561 368
635 43 74 109 189 148 255 38 66 80 138 92 160 13 22 46 81 75 130 29 50 96
164 148 255 156 271 343 593 363 625 10 17 22 37 26 45 4 8 45 80 92 160 95
164 143 247 176 305 13 22 47 81 75 130 29 50 85 145 124 213 39 67 76 130 81
140 6 9 31 53 56 97 25 44 112 195 194 335 82 140 155 266 162 280 8 14 25 43
38 65 13 22 30 51 37 65 7 14 38 68 69 120 31 52 66 111 76 130 11 19 31 53
44 76 13 23 62 107 109 188 47 81 93 162 104 179 10 18 55 95 100 172 44 77
86 149 93 160 7 11 15 27 19 35 4 8 25 43 45 77 21 34 50 83 64 110 14 26 30
55 35 63 18 28 200 341 200 344 0 2 17 33 38 67 22 35 50 84 64 109 33 59 191
329 208 357 8 12 12 25 8 28 -7 7 -8526 12 -8764 5z"/>
<path d="M16014 29221 c-2 -3 3 -16 13 -30 9 -14 72 -122 141 -241 68 -118
132 -228 142 -245 10 -16 33 -57 52 -90 37 -63 361 -622 526 -905 53 -91 109
-187 124 -215 16 -27 37 -63 47 -80 52 -88 238 -408 264 -455 17 -30 45 -79
64 -108 18 -29 33 -54 33 -57 0 -2 22 -42 49 -87 58 -99 535 -918 563 -968 11
-19 118 -204 238 -410 120 -206 227 -391 238 -410 49 -86 324 -558 343 -590
11 -19 64 -109 116 -200 53 -91 192 -331 311 -535 118 -203 223 -383 232 -400
10 -16 41 -70 70 -120 29 -49 64 -110 78 -135 14 -25 32 -57 41 -72 25 -42
111 -190 133 -228 11 -19 37 -64 58 -100 21 -36 47 -81 58 -100 11 -19 97
-168 192 -330 94 -162 182 -312 193 -334 12 -21 27 -46 32 -55 6 -9 34 -58 64
-109 29 -51 54 -92 56 -90 4 5 175 299 200 343 21 39 334 580 661 1142 90 155
172 297 183 315 80 141 342 594 406 703 29 50 155 268 280 485 125 217 235
406 244 420 8 14 23 39 32 55 9 17 90 156 179 310 90 154 219 379 289 500 69
121 129 222 133 223 5 2 8 7 8 12 0 4 73 133 161 286 89 154 171 295 181 314
33 57 118 204 128 220 5 8 44 76 87 150 43 74 90 155 105 180 15 25 31 52 35
60 4 8 28 51 54 95 26 44 57 99 70 121 25 43 291 502 322 555 9 17 60 105 113
197 53 92 145 250 204 352 59 102 150 260 203 352 53 92 106 182 117 200 11
18 29 50 40 71 l20 37 -32 0 c-351 3 -8891 4 -8894 1z"/>
<path d="M26866 29222 l-208 -2 26 -35 c14 -18 26 -36 26 -38 0 -3 101 -179
225 -392 124 -213 225 -388 225 -390 0 -3 121 -209 150 -255 5 -8 22 -37 38
-65 16 -27 40 -70 54 -95 14 -25 65 -112 113 -195 48 -82 97 -166 107 -185 11
-19 44 -75 73 -125 136 -231 295 -507 295 -511 0 -3 8 -17 19 -32 10 -15 36
-58 59 -97 22 -38 161 -279 310 -535 148 -256 280 -483 292 -505 12 -22 31
-52 41 -67 11 -14 19 -29 19 -32 0 -4 25 -48 55 -98 30 -50 55 -92 55 -94 0
-2 51 -90 113 -197 63 -106 117 -200 120 -208 4 -8 16 -27 26 -44 10 -16 78
-133 151 -260 73 -126 140 -241 150 -255 10 -15 29 -48 44 -75 14 -28 31 -57
36 -65 11 -17 159 -271 198 -339 13 -24 103 -180 200 -345 96 -166 185 -320
198 -343 13 -23 54 -93 91 -155 36 -62 84 -144 106 -183 22 -38 70 -122 107
-185 37 -63 78 -134 91 -156 29 -50 370 -637 384 -662 6 -9 21 -35 33 -57 12
-22 31 -53 41 -70 10 -16 29 -50 43 -75 38 -67 160 -275 163 -278 1 -2 31 46
64 105 67 117 70 122 119 200 17 30 32 55 32 57 0 2 46 81 101 177 104 178
168 287 262 452 111 192 194 333 220 374 15 24 27 45 27 48 0 4 55 100 100
175 21 35 129 219 152 260 14 25 89 155 168 290 78 135 150 259 160 275 36 63
320 551 470 810 86 149 191 329 232 400 42 72 99 171 128 220 62 107 76 131
121 210 18 33 37 62 41 63 4 2 8 7 8 12 0 4 104 187 231 407 128 219 241 414
252 433 10 19 23 40 27 45 4 6 20 33 36 60 15 28 36 64 46 80 10 17 21 37 25
45 3 8 17 32 30 53 13 21 33 54 44 73 42 75 59 105 144 249 180 309 233 401
252 435 11 20 53 92 93 160 135 231 363 625 388 670 13 25 31 52 38 61 8 8 14
18 14 21 0 4 19 39 43 80 24 40 55 93 69 118 31 55 274 473 299 515 10 17 23
38 29 48 10 16 -18 17 -532 17 -299 0 -2219 1 -4268 3 -2049 1 -3819 1 -3934
-1z"/>
<path d="M4457 28698 c-13 -21 -138 -235 -185 -318 -21 -37 -224 -388 -277
-480 -18 -30 -51 -89 -75 -130 -53 -93 -207 -360 -219 -380 -5 -8 -88 -150
-183 -315 -95 -164 -210 -362 -255 -440 -46 -77 -86 -147 -90 -155 -4 -8 -45
-80 -91 -160 -47 -80 -93 -159 -102 -176 -30 -52 -169 -293 -243 -419 -38 -66
-80 -138 -92 -160 -12 -22 -46 -80 -75 -130 -29 -49 -61 -106 -72 -125 -11
-19 -71 -123 -133 -230 -283 -489 -444 -768 -461 -799 -11 -18 -24 -41 -29
-50 -6 -9 -30 -50 -53 -91 -24 -41 -47 -82 -52 -90 -5 -8 -47 -80 -93 -160
-46 -80 -187 -323 -312 -540 -126 -217 -252 -435 -280 -485 -28 -49 -78 -135
-110 -190 -122 -210 -198 -341 -220 -380 -12 -22 -79 -139 -150 -260 -70 -121
-139 -240 -153 -265 -14 -25 -80 -139 -147 -255 -67 -115 -154 -265 -194 -333
-39 -68 -71 -127 -71 -131 0 -5 -7 -14 -15 -21 -9 -7 -13 -15 -10 -19 6 -5
8925 -9 8925 -3 0 2 -34 63 -77 135 -42 73 -87 152 -101 177 -14 25 -33 57
-43 72 -11 14 -19 29 -19 32 0 3 -25 46 -55 96 -30 50 -55 92 -55 94 0 3 -209
364 -229 396 -6 8 -22 38 -37 65 -14 28 -32 57 -40 66 -8 8 -14 19 -14 22 0 4
-29 55 -64 114 -34 60 -107 185 -161 278 -118 205 -175 303 -290 500 -48 83
-99 170 -113 195 -14 25 -88 153 -165 285 -77 132 -152 263 -168 290 -15 28
-70 124 -123 214 -53 90 -96 165 -96 166 0 3 -51 90 -120 205 -8 13 -159 275
-231 400 -36 61 -415 715 -502 865 -38 66 -78 136 -89 155 -11 19 -85 145
-163 280 -78 135 -234 403 -345 595 -340 588 -380 657 -432 745 -27 47 -53 92
-58 100 -29 47 -210 362 -210 366 0 2 -15 27 -33 56 -19 29 -47 78 -64 108
-17 30 -76 134 -133 230 -56 96 -115 198 -130 225 -16 28 -46 81 -68 118 -40
68 -40 69 -55 45z"/>
<path d="M15114 28683 c-12 -21 -47 -83 -79 -138 -75 -130 -83 -143 -144 -250
-28 -49 -55 -97 -61 -105 -11 -18 -119 -207 -134 -235 -6 -11 -14 -22 -17 -25
-4 -3 -18 -27 -33 -55 -14 -27 -31 -57 -36 -65 -17 -25 -130 -221 -130 -225 0
-2 -18 -33 -40 -69 -22 -37 -53 -90 -69 -119 -16 -28 -93 -162 -171 -297 -78
-135 -185 -319 -238 -410 -52 -91 -111 -192 -130 -225 -70 -122 -101 -175
-190 -330 -35 -61 -67 -117 -73 -125 -11 -19 -202 -348 -237 -410 -14 -25 -62
-108 -107 -185 -45 -77 -153 -264 -240 -415 -87 -151 -189 -327 -225 -390 -37
-63 -76 -131 -87 -150 -18 -32 -140 -242 -191 -330 -12 -19 -36 -62 -55 -95
-52 -91 -70 -122 -127 -220 -29 -49 -62 -106 -72 -125 -29 -49 -111 -191 -125
-215 -7 -11 -15 -26 -19 -34 -4 -8 -52 -91 -107 -185 -55 -94 -107 -184 -117
-201 -9 -16 -43 -75 -75 -130 -32 -55 -66 -114 -75 -131 -27 -47 -165 -285
-243 -419 -38 -66 -79 -136 -90 -155 -25 -45 -108 -189 -124 -215 -7 -11 -16
-27 -20 -35 -4 -8 -27 -49 -51 -90 -25 -41 -54 -91 -65 -110 -10 -19 -111
-194 -224 -388 -112 -194 -206 -358 -209 -365 -3 -9 1004 -12 4455 -12 2453 1
4462 3 4464 5 3 3 -41 82 -95 175 -55 94 -111 190 -125 215 -13 25 -33 59 -43
75 -10 17 -27 46 -38 65 -11 19 -130 226 -266 458 -135 233 -246 428 -246 433
0 5 -4 9 -8 9 -4 0 -13 12 -20 28 -18 40 -76 140 -90 154 -7 7 -12 16 -12 20
0 4 -27 53 -60 109 -33 55 -60 102 -60 104 0 2 -43 76 -90 155 -29 49 -157
268 -166 285 -5 11 -34 60 -62 108 -29 48 -52 92 -52 97 0 6 -4 10 -8 10 -5 0
-16 16 -25 35 -17 36 -277 486 -396 685 -11 19 -25 44 -31 55 -5 11 -21 38
-35 60 -14 22 -28 47 -32 55 -4 8 -27 49 -51 90 -25 41 -53 90 -64 108 -23 42
-104 182 -403 697 -131 226 -248 428 -260 450 -13 22 -57 98 -99 169 -42 70
-76 129 -76 131 0 1 -30 54 -66 116 -37 63 -125 215 -197 339 -239 412 -258
445 -267 460 -6 8 -13 22 -17 30 -4 8 -17 32 -30 53 -13 21 -32 53 -42 70 -10
18 -85 147 -166 287 -81 140 -155 269 -165 285 -9 17 -99 172 -200 345 -100
173 -230 396 -287 495 -58 99 -108 183 -112 188 -4 4 -16 -10 -27 -30z"/>
<path d="M25793 28708 c-6 -7 -12 -17 -14 -23 -4 -9 -68 -121 -89 -155 -9 -14
-53 -89 -90 -156 -20 -34 -289 -501 -372 -644 -61 -105 -82 -141 -376 -650
-113 -195 -221 -382 -240 -415 -19 -33 -42 -73 -52 -90 -84 -147 -215 -374
-235 -406 -14 -21 -25 -41 -25 -43 0 -3 -25 -46 -55 -97 -30 -50 -55 -93 -55
-94 0 -2 -19 -36 -43 -77 -24 -40 -55 -93 -69 -118 -14 -25 -57 -99 -95 -165
-62 -107 -278 -481 -323 -560 -10 -16 -72 -124 -139 -239 -66 -115 -121 -212
-121 -214 0 -3 -6 -13 -14 -21 -7 -9 -27 -41 -43 -71 -28 -52 -69 -122 -201
-350 -30 -52 -87 -150 -126 -218 -39 -68 -78 -135 -87 -150 -9 -15 -27 -47
-41 -72 -14 -25 -48 -84 -77 -132 -28 -48 -51 -91 -51 -97 0 -6 -4 -11 -10
-11 -5 0 -10 -4 -10 -10 0 -10 -87 -163 -121 -212 -11 -15 -19 -30 -19 -33 0
-4 -23 -45 -51 -93 -29 -48 -61 -103 -72 -122 -24 -43 -185 -322 -257 -445
-29 -49 -62 -108 -74 -130 -13 -22 -147 -254 -298 -515 -151 -261 -286 -495
-300 -520 -14 -25 -55 -96 -92 -159 -36 -62 -66 -116 -66 -119 0 -3 -6 -13
-14 -21 -7 -9 -16 -25 -20 -36 -6 -20 -1 -20 4442 -19 2446 1 4455 2 4466 3
17 1 16 4 -6 34 -14 17 -27 37 -29 42 -3 8 -190 333 -290 503 -9 15 -27 47
-41 72 -14 25 -55 97 -92 160 -37 63 -71 122 -76 130 -17 31 -521 898 -726
1250 -116 201 -221 381 -231 400 -11 19 -50 86 -87 148 -36 62 -78 134 -92
160 -29 51 -126 218 -274 472 -53 91 -134 230 -180 310 -46 80 -163 282 -260
450 -272 468 -320 551 -348 600 -13 25 -28 50 -32 55 -4 6 -20 33 -36 60 -15
28 -34 62 -43 77 -9 15 -44 75 -79 135 -34 59 -67 115 -72 123 -5 8 -56 96
-113 195 -298 513 -519 896 -600 1035 -50 85 -98 169 -107 185 -20 35 -116
201 -144 248 -54 93 -360 620 -424 732 -41 72 -75 131 -77 133 -1 1 -7 -3 -12
-10z"/>
<path d="M36265 28374 c-110 -190 -211 -365 -224 -387 -13 -23 -90 -157 -171
-297 -81 -140 -158 -273 -170 -295 -49 -85 -125 -217 -135 -233 -8 -13 -99
-172 -210 -364 -5 -10 -57 -99 -115 -199 -58 -100 -121 -210 -141 -245 -19
-36 -41 -70 -47 -76 -7 -7 -12 -15 -12 -19 0 -3 -48 -89 -106 -190 -59 -101
-154 -267 -213 -369 -58 -102 -109 -186 -113 -188 -5 -2 -8 -8 -8 -14 0 -5
-16 -37 -36 -71 -20 -34 -48 -82 -61 -106 -14 -24 -61 -104 -104 -178 -43 -75
-79 -137 -79 -140 0 -2 -8 -16 -19 -31 -10 -15 -40 -65 -66 -111 -70 -125 -65
-117 -299 -520 -119 -205 -216 -375 -216 -377 0 -2 -13 -23 -30 -47 -16 -25
-30 -47 -30 -51 0 -3 -22 -43 -49 -88 -41 -71 -116 -200 -181 -313 -10 -16
-46 -80 -82 -141 -36 -61 -68 -117 -71 -125 -4 -8 -17 -30 -28 -49 -17 -28
-574 -990 -638 -1103 -10 -18 -51 -88 -91 -157 -40 -69 -84 -146 -99 -171 -66
-115 -198 -344 -215 -372 -147 -252 -192 -336 -183 -339 10 -3 8832 -2 8894 1
18 1 -6 47 -190 364 -115 199 -227 391 -247 427 -44 78 -293 507 -435 750 -56
96 -113 195 -127 220 -14 25 -121 209 -237 408 -116 200 -211 368 -211 373 0
5 -4 9 -10 9 -5 0 -10 4 -10 9 0 8 -118 215 -191 336 -10 17 -24 41 -32 55
-16 30 -266 461 -296 510 -11 19 -24 42 -28 50 -4 8 -33 59 -65 113 -32 54
-58 101 -58 103 0 3 -8 17 -19 32 -10 15 -103 173 -206 352 -104 179 -196 339
-206 355 -10 17 -24 41 -32 55 -7 14 -47 84 -89 155 -41 72 -207 357 -368 635
-161 278 -301 519 -310 535 -9 17 -66 113 -125 215 -59 102 -121 210 -138 240
-16 30 -33 60 -37 65 -7 10 -472 808 -494 850 -10 17 -141 242 -166 285 -58
97 -90 153 -90 159 0 3 -8 16 -18 29 -17 22 -19 19 -217 -324z"/>
<path d="M23 19997 c-2 -4 16 -42 40 -85 25 -42 53 -93 64 -112 11 -19 126
-217 255 -440 129 -223 238 -412 242 -420 4 -8 12 -24 19 -35 7 -11 59 -101
116 -200 57 -99 122 -208 143 -242 21 -34 38 -65 38 -67 0 -3 14 -29 31 -58
55 -92 221 -379 271 -468 14 -25 74 -128 133 -230 59 -102 159 -275 223 -385
63 -110 146 -254 185 -320 38 -66 81 -140 95 -165 14 -25 45 -78 69 -118 24
-41 43 -75 43 -76 0 -3 169 -296 200 -346 5 -8 46 -80 92 -159 86 -150 96
-167 139 -241 15 -25 36 -61 47 -80 32 -57 273 -475 352 -610 40 -69 86 -150
103 -180 17 -30 48 -83 69 -118 21 -34 38 -64 38 -66 0 -4 104 -185 130 -226
5 -8 22 -37 38 -65 35 -61 41 -71 182 -315 62 -107 123 -213 136 -235 39 -71
166 -289 185 -320 10 -16 22 -37 26 -45 4 -8 20 -37 36 -65 54 -91 370 -639
395 -685 23 -41 45 -79 79 -135 28 -48 160 -276 192 -332 19 -35 37 -63 40
-63 7 0 27 33 193 320 71 124 173 299 226 390 53 91 102 176 109 190 8 14 25
43 39 65 13 22 30 51 36 65 7 14 19 36 29 50 9 14 27 45 41 70 14 25 88 153
165 285 168 289 330 569 353 610 28 48 300 519 310 535 5 8 27 47 49 85 69
119 93 161 261 450 89 154 204 352 255 440 51 88 231 399 400 690 169 292 320
551 334 577 14 26 50 89 80 140 30 51 62 107 71 123 10 17 71 122 137 235 65
113 135 232 154 265 18 33 39 68 44 77 6 9 31 54 58 100 26 46 58 101 71 123
44 76 139 240 226 390 117 203 202 349 478 825 129 223 246 425 260 449 14 25
38 67 54 94 16 27 30 54 31 60 2 12 -8902 17 -8910 4z"/>
<path d="M10689 20000 c-5 -3 86 -170 202 -370 116 -201 281 -486 366 -635 86
-148 163 -281 172 -295 8 -14 23 -38 32 -55 24 -43 816 -1413 973 -1684 36
-62 66 -116 66 -119 0 -3 6 -13 14 -21 7 -9 27 -41 43 -71 52 -95 305 -534
324 -562 11 -15 19 -29 19 -31 0 -3 36 -67 81 -143 44 -77 91 -157 103 -179
41 -73 386 -670 396 -685 5 -8 31 -53 58 -100 27 -47 59 -103 72 -125 98 -173
284 -492 290 -500 4 -5 20 -32 35 -60 15 -27 120 -210 233 -405 113 -195 214
-370 224 -389 11 -19 143 -248 295 -510 152 -262 285 -492 295 -511 99 -174
151 -260 157 -260 4 0 15 15 24 33 9 17 21 39 26 47 5 8 25 42 45 75 286 493
393 678 414 715 32 59 40 72 89 155 62 105 293 504 321 555 23 41 46 81 79
135 16 27 172 298 204 354 14 25 44 77 67 115 23 37 42 72 42 77 0 5 5 9 10 9
6 0 10 5 10 12 0 6 41 82 92 167 51 86 102 174 114 196 12 22 84 148 161 280
149 256 313 537 345 595 33 58 236 409 293 505 97 166 203 350 230 400 15 28
34 57 41 66 8 8 14 19 14 22 0 4 18 37 40 73 22 36 40 67 40 69 0 2 27 49 60
105 33 56 60 104 60 108 0 3 6 13 14 21 7 9 27 41 44 71 16 30 119 208 227
395 109 187 205 354 215 371 18 31 46 80 347 599 99 171 191 330 205 355 14
25 64 110 110 190 355 611 478 826 478 835 0 10 -8894 15 -8911 5z"/>
<path d="M21359 19999 c-6 -3 13 -46 42 -95 28 -49 65 -114 82 -144 17 -30 48
-83 69 -118 21 -34 38 -65 38 -67 0 -3 11 -22 24 -43 12 -20 66 -111 118 -202
52 -91 146 -253 208 -360 62 -107 123 -213 136 -235 39 -71 166 -289 185 -320
10 -16 22 -37 26 -45 4 -8 43 -78 88 -155 45 -77 152 -261 237 -410 86 -148
165 -286 176 -305 12 -19 36 -62 55 -95 19 -33 66 -114 104 -180 38 -66 81
-140 95 -165 49 -88 292 -507 375 -646 45 -78 83 -145 83 -148 0 -4 11 -23 24
-44 13 -20 35 -55 48 -78 31 -54 147 -255 158 -274 5 -8 68 -116 139 -240 71
-124 137 -239 147 -257 11 -17 37 -62 58 -100 72 -125 294 -509 315 -544 11
-19 24 -41 28 -49 4 -8 28 -51 54 -95 60 -103 374 -646 407 -705 14 -25 51
-88 82 -140 31 -52 59 -102 63 -110 4 -8 13 -24 20 -35 7 -11 30 -52 52 -90
22 -39 44 -78 50 -87 5 -10 37 -64 69 -120 33 -57 139 -240 236 -408 180 -310
193 -334 290 -504 30 -53 58 -96 61 -96 4 0 116 186 194 325 13 22 119 204
235 405 117 201 224 385 238 410 14 25 45 78 69 118 24 41 43 76 43 79 0 3 14
25 30 50 17 24 30 46 30 47 0 2 36 64 79 139 43 74 90 154 104 178 13 24 57
100 97 169 40 69 81 141 92 160 11 19 84 145 163 280 78 135 168 289 199 343
30 53 81 141 112 195 31 53 90 155 131 226 41 70 83 142 93 160 11 17 25 42
33 56 13 23 25 45 75 130 11 19 65 112 119 205 55 94 111 190 125 215 14 25
83 144 153 265 70 121 149 258 176 305 27 47 54 92 59 100 5 8 55 96 113 195
57 99 161 279 232 400 70 121 136 236 147 255 11 19 119 204 238 411 120 207
227 391 238 410 17 30 107 185 284 489 30 52 98 169 150 260 53 91 105 181
116 200 12 19 41 71 67 115 25 44 56 98 69 120 99 168 166 289 161 293 -8 8
-8894 9 -8906 1z"/>
<path d="M32015 20002 c-3 -3 43 -84 395 -692 122 -212 231 -401 242 -420 11
-19 39 -66 61 -105 22 -38 45 -79 51 -90 6 -11 44 -76 84 -145 40 -69 77 -132
82 -140 5 -8 29 -50 54 -93 25 -43 46 -80 46 -83 0 -3 8 -18 18 -32 11 -15 33
-52 49 -82 17 -30 137 -239 268 -465 130 -225 247 -428 260 -450 12 -22 64
-112 115 -200 51 -88 104 -180 118 -205 13 -25 28 -49 32 -55 4 -5 19 -30 32
-55 14 -25 92 -160 173 -300 81 -140 155 -268 164 -285 9 -16 24 -41 33 -55 9
-14 26 -44 39 -67 13 -23 71 -124 129 -225 58 -100 117 -202 131 -227 14 -25
36 -62 47 -81 12 -19 25 -41 29 -49 3 -8 35 -64 71 -125 36 -61 73 -126 84
-144 10 -18 51 -90 92 -160 294 -509 407 -704 434 -752 14 -25 80 -139 147
-255 67 -115 154 -266 194 -335 40 -69 76 -132 81 -140 5 -8 29 -50 54 -93 25
-43 46 -80 46 -83 0 -2 11 -23 26 -45 14 -22 33 -55 43 -72 10 -18 103 -178
206 -357 103 -179 217 -376 252 -437 35 -62 68 -113 73 -113 4 0 11 8 15 18 3
9 28 53 54 97 26 44 94 161 151 260 104 181 183 317 200 345 5 8 32 54 60 103
27 48 73 126 100 175 28 48 55 94 60 102 47 74 250 432 250 440 0 5 3 10 8 10
4 0 12 10 18 23 9 20 480 836 509 882 7 11 12 23 11 26 -1 4 6 15 15 25 9 11
26 37 38 59 12 22 31 56 42 75 22 37 160 275 189 325 10 17 109 188 220 380
236 407 200 345 379 655 77 135 145 252 150 260 9 13 169 289 230 394 154 268
224 388 277 479 35 59 64 109 64 112 0 4 40 71 78 130 6 11 15 27 19 35 4 8
26 47 48 85 23 39 86 147 140 240 54 94 130 224 168 290 38 66 78 136 89 155
11 19 61 105 110 190 50 85 102 175 116 200 15 25 33 57 42 72 8 16 38 67 66
115 48 81 107 183 364 628 51 88 104 180 118 205 13 25 30 52 36 60 28 37 37
60 24 61 -33 3 -8910 4 -8913 1z"/>
<path d="M9625 19173 c-104 -179 -202 -347 -216 -372 -14 -25 -105 -181 -201
-346 -96 -165 -184 -315 -194 -334 -10 -18 -23 -41 -29 -50 -5 -9 -35 -59 -65
-111 -30 -52 -59 -102 -65 -111 -5 -9 -32 -54 -58 -100 -26 -46 -52 -91 -57
-99 -9 -13 -394 -675 -441 -757 -36 -63 -259 -448 -269 -463 -12 -19 -85 -145
-198 -340 -49 -85 -127 -220 -174 -300 -282 -483 -361 -619 -393 -675 -12 -22
-165 -285 -340 -585 -175 -300 -327 -561 -338 -580 -10 -19 -43 -75 -72 -125
-29 -49 -63 -108 -75 -130 -13 -22 -30 -52 -39 -67 -34 -58 -317 -544 -342
-587 -22 -38 -271 -467 -457 -786 -26 -44 -51 -87 -57 -97 -5 -9 -32 -54 -59
-100 -26 -46 -62 -108 -79 -138 -16 -30 -38 -66 -47 -80 -9 -14 -20 -31 -24
-37 -6 -10 891 -13 4468 -13 l4475 0 -74 126 c-41 69 -75 127 -75 129 0 1 -55
97 -122 211 -66 115 -129 223 -138 239 -68 121 -260 452 -291 503 -22 35 -39
65 -39 67 0 2 -87 154 -130 225 -10 18 -166 287 -198 344 -39 68 -212 367
-252 436 -105 180 -342 589 -500 865 -10 17 -84 145 -165 285 -81 140 -156
269 -165 285 -9 17 -50 87 -90 155 -40 69 -82 141 -93 160 -11 19 -86 150
-167 290 -81 140 -157 272 -168 292 -12 20 -32 55 -46 77 -15 22 -26 43 -26
45 0 2 -21 40 -46 83 -26 43 -56 94 -67 113 -10 19 -69 121 -130 225 -60 105
-121 209 -134 233 -13 24 -94 163 -179 309 -85 146 -154 268 -154 270 0 2 -13
24 -30 48 -16 24 -30 46 -30 48 0 3 -64 115 -141 249 -78 133 -151 260 -163
280 -20 36 -163 284 -214 372 -90 153 -179 307 -197 341 -12 22 -50 87 -83
143 -34 57 -62 106 -62 108 0 4 -91 154 -93 154 -1 0 -87 -147 -192 -327z"/>
<path d="M20454 19453 c-15 -26 -33 -58 -40 -70 -8 -12 -22 -37 -32 -55 -52
-91 -430 -741 -464 -797 -21 -34 -38 -65 -38 -68 0 -2 -44 -79 -99 -171 -54
-92 -109 -187 -123 -212 -24 -43 -54 -95 -252 -433 -47 -82 -86 -152 -86 -157
0 -5 -3 -10 -7 -12 -5 -1 -17 -20 -28 -40 -18 -33 -162 -282 -430 -743 -45
-77 -93 -160 -107 -185 -14 -25 -105 -182 -203 -350 -97 -168 -203 -350 -235
-405 -32 -55 -97 -167 -145 -250 -48 -82 -96 -165 -107 -184 -11 -19 -119
-206 -240 -415 -122 -210 -226 -390 -232 -401 -6 -11 -13 -22 -16 -25 -3 -3
-12 -19 -21 -35 -8 -17 -121 -212 -251 -435 -129 -223 -243 -418 -252 -435 -9
-16 -30 -52 -47 -80 -16 -27 -32 -57 -36 -65 -3 -8 -11 -22 -18 -30 -7 -8 -27
-42 -45 -75 -17 -33 -35 -64 -40 -70 -4 -5 -19 -30 -32 -55 -30 -53 -154 -268
-167 -290 -5 -8 -72 -123 -148 -254 -170 -295 -154 -267 -321 -553 -76 -131
-141 -245 -145 -253 -4 -8 -14 -25 -23 -37 l-16 -23 4467 0 4467 0 -25 43
c-14 23 -34 58 -44 77 -64 113 -217 377 -223 385 -5 6 -19 30 -32 55 -23 41
-81 143 -176 305 -19 33 -46 80 -60 105 -13 25 -28 50 -32 55 -4 6 -19 30 -32
55 -14 25 -57 99 -95 165 -81 139 -198 342 -522 905 -129 223 -244 421 -256
440 -12 19 -50 85 -85 145 -70 123 -277 482 -290 505 -12 18 -100 172 -128
220 -10 19 -94 164 -186 323 -92 158 -175 302 -185 320 -10 17 -34 59 -53 92
-19 33 -67 116 -107 185 -39 69 -76 132 -81 140 -45 76 -100 175 -100 182 0 4
-4 8 -10 8 -5 0 -10 4 -10 10 0 5 -53 100 -118 212 -65 112 -134 230 -153 263
-18 33 -38 67 -44 76 -5 9 -19 32 -29 50 -10 19 -111 194 -224 389 -320 553
-493 852 -512 886 -10 17 -127 219 -260 450 -134 230 -252 435 -262 454 -47
81 -102 176 -114 193 -11 17 -15 15 -40 -30z"/>
<path d="M31034 19329 c-54 -94 -110 -190 -123 -213 -12 -22 -47 -81 -76 -131
-66 -112 -265 -456 -295 -510 -12 -22 -31 -52 -41 -67 -11 -14 -19 -28 -19
-31 0 -3 -19 -38 -43 -79 -24 -40 -55 -93 -69 -118 -14 -25 -130 -224 -257
-443 -127 -220 -231 -403 -231 -407 0 -5 -3 -10 -7 -12 -5 -1 -15 -16 -24 -33
-17 -31 -264 -458 -445 -768 -57 -98 -104 -182 -104 -187 0 -6 -4 -10 -10 -10
-5 0 -10 -4 -10 -9 0 -5 -32 -64 -72 -132 -39 -68 -79 -137 -88 -154 -10 -16
-96 -165 -192 -330 -96 -165 -268 -461 -381 -657 -114 -197 -215 -371 -225
-388 -25 -44 -162 -280 -182 -315 -10 -16 -41 -70 -70 -120 -29 -49 -61 -106
-72 -125 -11 -19 -53 -91 -93 -160 -40 -69 -82 -141 -93 -160 -11 -19 -75
-129 -142 -245 -67 -115 -132 -228 -145 -250 -95 -167 -293 -508 -316 -544
-16 -24 -38 -62 -49 -85 -12 -22 -29 -54 -39 -71 -24 -39 -186 -316 -218 -374
-14 -24 -61 -104 -104 -178 -43 -75 -79 -137 -79 -139 0 -2 -11 -20 -25 -40
-14 -20 -25 -41 -25 -45 0 -5 1980 -9 4470 -9 l4469 0 -31 53 c-17 28 -39 67
-49 85 -11 17 -27 47 -38 65 -10 17 -98 169 -196 337 -97 168 -191 330 -208
360 -16 30 -54 95 -84 143 -29 49 -53 90 -53 93 0 2 -11 21 -23 42 -13 20 -35
57 -49 82 -14 25 -121 209 -237 408 -116 200 -211 368 -211 373 0 5 -4 9 -10
9 -5 0 -10 5 -10 10 0 6 -25 52 -55 102 -30 50 -55 93 -55 95 0 2 -20 36 -43
76 -42 69 -103 174 -144 247 -11 19 -65 112 -120 206 -55 94 -103 178 -107
185 -3 8 -15 28 -26 44 -11 17 -23 37 -27 45 -4 8 -69 122 -146 254 -76 131
-147 252 -156 270 -10 17 -65 112 -123 211 -58 99 -116 200 -130 225 -14 25
-90 155 -168 290 -79 135 -152 260 -162 279 -11 19 -59 102 -108 185 -48 83
-97 167 -108 186 -11 19 -74 129 -141 244 -66 115 -121 213 -121 217 0 5 -4 9
-10 9 -5 0 -10 4 -10 9 0 5 -64 118 -141 252 -78 134 -174 300 -214 369 -40
69 -102 175 -137 236 -36 61 -68 117 -71 125 -4 8 -16 28 -26 44 -24 39 -131
223 -268 460 -289 502 -446 771 -453 778 -4 4 -51 -69 -106 -164z"/>
<path d="M5354 10745 c13 -22 65 -112 115 -200 51 -88 96 -167 101 -175 42
-65 480 -834 480 -841 0 -5 5 -9 10 -9 6 0 10 -4 10 -10 0 -5 36 -70 80 -146
44 -75 80 -138 80 -140 0 -3 11 -21 24 -42 13 -20 48 -80 78 -132 71 -122 320
-554 346 -600 22 -40 86 -151 112 -195 10 -16 136 -235 280 -485 145 -250 274
-472 286 -492 13 -21 24 -40 24 -42 0 -2 44 -80 98 -173 54 -92 129 -222 167
-288 38 -66 75 -128 83 -137 8 -10 12 -18 8 -18 -4 0 7 -20 24 -44 16 -25 30
-47 30 -49 0 -5 181 -318 200 -347 6 -8 13 -22 17 -30 4 -8 44 -79 90 -158 46
-79 94 -162 107 -185 13 -23 65 -114 116 -202 173 -299 312 -540 425 -735 62
-107 145 -251 185 -320 40 -69 84 -145 98 -170 14 -25 56 -99 95 -165 38 -66
79 -136 89 -155 11 -19 24 -39 28 -45 4 -5 21 -35 37 -65 17 -30 54 -95 83
-145 29 -49 62 -106 73 -125 10 -19 71 -125 135 -235 63 -110 144 -251 180
-313 35 -61 67 -112 71 -112 4 0 22 28 40 63 19 34 40 69 47 78 8 8 14 18 14
21 0 4 86 156 192 340 105 183 199 347 209 365 10 17 87 152 172 300 276 480
889 1548 922 1608 13 22 46 81 75 130 29 50 64 110 78 135 14 25 47 82 73 128
27 45 49 85 49 87 0 4 40 71 78 130 6 11 15 27 19 35 4 8 34 63 68 121 34 58
65 112 68 120 4 8 15 28 25 44 11 17 108 185 217 375 109 190 259 451 333 580
74 129 146 255 160 279 14 25 38 67 53 93 16 27 29 50 29 52 0 2 24 43 53 92
29 49 56 96 60 104 4 8 17 31 28 50 12 19 33 55 47 80 35 63 160 282 172 300
5 8 42 74 83 145 41 72 152 265 247 430 95 165 182 318 195 340 12 22 91 159
175 305 84 146 164 285 178 310 14 25 56 99 95 165 38 66 81 140 95 165 13 25
42 75 63 112 22 36 39 70 39 75 0 4 -2011 8 -4469 8 l-4470 0 23 -40z"/>
<path d="M16004 10779 c-2 -3 10 -27 26 -53 17 -26 30 -49 30 -51 0 -3 44 -81
98 -173 54 -92 101 -174 105 -182 4 -8 15 -28 26 -45 10 -16 28 -48 41 -70 12
-22 72 -125 133 -230 60 -104 119 -206 130 -225 10 -19 86 -150 167 -290 81
-140 156 -271 167 -290 11 -19 93 -160 181 -313 89 -153 162 -281 162 -284 0
-3 8 -17 19 -31 10 -15 31 -49 47 -77 15 -27 35 -63 45 -80 10 -16 26 -43 35
-60 14 -26 498 -864 556 -965 39 -66 205 -355 225 -390 11 -19 93 -161 183
-315 89 -154 172 -298 185 -320 12 -22 64 -112 115 -200 51 -88 101 -173 110
-190 14 -24 185 -321 260 -450 9 -16 103 -178 207 -360 105 -181 200 -346 212
-365 11 -19 34 -60 51 -90 17 -30 40 -71 51 -90 12 -19 64 -109 116 -200 53
-91 130 -223 171 -295 41 -71 86 -150 100 -175 14 -25 36 -62 49 -82 12 -21
23 -40 23 -42 0 -3 25 -45 55 -95 30 -50 55 -93 55 -96 0 -3 11 -22 23 -43 49
-77 167 -285 167 -293 0 -5 5 -9 10 -9 6 0 10 -6 11 -12 1 -18 122 -221 133
-222 6 -1 213 350 343 584 14 25 29 50 33 55 4 6 22 37 40 70 32 58 285 500
321 560 10 17 24 41 32 55 24 45 460 805 937 1635 117 204 224 390 238 415 14
25 50 88 80 140 30 52 64 111 75 130 11 19 97 170 192 335 95 165 185 323 200
350 15 27 41 72 58 99 16 28 41 71 55 96 14 25 75 133 137 240 62 107 210 366
330 575 120 209 304 531 410 715 106 184 205 358 220 385 16 28 43 74 62 103
18 29 33 55 33 58 0 3 42 78 94 167 95 165 285 495 460 801 54 93 98 174 99
180 2 11 -8922 16 -8929 5z"/>
<path d="M26674 10781 c-2 -2 10 -29 28 -60 17 -31 42 -76 56 -101 14 -25 132
-229 262 -455 130 -225 248 -430 262 -455 14 -25 58 -101 98 -170 40 -69 82
-141 92 -160 10 -19 27 -48 37 -65 18 -29 40 -68 82 -142 12 -21 47 -83 79
-138 32 -55 68 -118 80 -140 12 -22 59 -103 104 -180 45 -77 85 -147 89 -155
4 -8 17 -31 28 -50 24 -40 194 -334 231 -400 14 -25 75 -130 135 -235 189
-326 561 -974 591 -1026 10 -19 115 -200 232 -404 117 -203 245 -426 285 -495
40 -69 125 -217 190 -330 65 -113 127 -221 138 -240 10 -19 34 -60 52 -90 18
-30 44 -75 57 -100 28 -51 395 -687 427 -740 12 -19 28 -48 36 -65 9 -16 27
-48 40 -70 14 -22 30 -49 35 -60 6 -11 18 -33 29 -50 15 -25 398 -689 466
-810 135 -236 214 -370 222 -372 5 -2 14 7 20 19 6 13 140 248 298 523 158
275 296 514 305 530 16 28 189 329 302 525 26 47 53 92 58 100 9 16 170 295
206 359 11 20 141 245 289 501 148 256 280 486 294 512 14 25 58 102 98 170
39 68 80 139 91 158 10 19 57 100 104 180 46 80 87 152 91 160 4 8 16 30 27
48 20 33 215 372 543 942 93 162 191 331 216 375 26 44 50 87 54 95 4 8 16 29
26 46 32 53 173 296 197 340 12 22 34 59 48 82 14 23 26 44 26 47 0 2 16 29
35 59 19 30 35 57 35 60 0 2 39 71 86 153 48 81 98 168 112 193 13 25 28 50
32 55 4 6 20 33 35 60 27 49 196 343 407 707 59 103 108 189 108 191 0 2 24
44 53 93 30 49 65 109 79 134 73 130 181 317 190 328 6 6 7 13 2 13 -27 4
-8926 3 -8930 0z"/>
<path d="M15059 10150 c-41 -72 -81 -143 -90 -158 -9 -15 -98 -171 -199 -347
-101 -176 -208 -363 -238 -415 -30 -52 -66 -115 -80 -140 -13 -25 -57 -101
-97 -170 -40 -69 -82 -141 -92 -160 -11 -19 -100 -174 -198 -345 -98 -170
-345 -602 -550 -960 -205 -357 -459 -800 -564 -983 -105 -184 -191 -338 -191
-343 0 -5 -4 -9 -10 -9 -5 0 -10 -4 -10 -9 0 -4 -68 -127 -152 -272 -83 -145
-159 -277 -168 -294 -9 -16 -76 -133 -149 -259 -72 -125 -131 -232 -131 -236
0 -5 -3 -10 -7 -12 -5 -1 -16 -19 -27 -38 -14 -27 -328 -576 -472 -827 -86
-148 -351 -612 -360 -628 -5 -11 -35 -63 -66 -115 -31 -52 -65 -111 -76 -130
-10 -19 -99 -174 -197 -345 -98 -170 -189 -330 -203 -355 -14 -25 -31 -54 -38
-65 -8 -11 -14 -22 -14 -26 0 -3 2009 -6 4465 -6 l4465 0 -36 66 c-20 36 -43
73 -50 82 -8 8 -14 18 -14 21 0 4 -154 273 -341 600 -188 326 -350 609 -361
628 -10 19 -23 42 -29 50 -19 30 -239 413 -239 416 0 2 -14 27 -31 56 -18 29
-109 188 -204 353 -95 165 -222 387 -284 493 -61 107 -111 198 -111 203 0 5
-4 9 -10 9 -5 0 -10 4 -10 9 0 5 -75 139 -166 298 -91 158 -177 308 -191 333
-14 25 -28 50 -33 55 -4 6 -21 35 -37 65 -17 30 -99 174 -183 320 -84 146
-161 279 -170 295 -9 17 -192 334 -405 705 -214 371 -396 690 -404 708 -8 17
-19 32 -23 32 -4 0 -8 4 -8 8 0 5 -54 102 -120 217 -66 115 -120 210 -120 211
0 2 -17 32 -38 66 -21 35 -52 88 -69 118 -16 30 -90 159 -163 285 -73 127
-142 246 -153 265 -10 19 -36 64 -57 100 -21 36 -47 81 -57 100 -11 19 -55 96
-98 170 -44 74 -89 153 -100 175 -45 83 -139 240 -150 253 -9 10 -28 -16 -86
-118z"/>
<path d="M25786 10258 c-29 -47 -134 -230 -194 -338 -13 -25 -28 -49 -32 -55
-5 -5 -19 -30 -32 -55 -13 -25 -204 -358 -423 -740 -219 -382 -409 -715 -423
-740 -14 -25 -33 -57 -43 -72 -11 -14 -19 -29 -19 -32 0 -3 -13 -27 -29 -54
-15 -26 -39 -68 -53 -93 -14 -24 -49 -84 -78 -134 -29 -49 -62 -108 -75 -130
-47 -84 -70 -123 -280 -491 -120 -209 -227 -395 -237 -414 -11 -19 -46 -80
-78 -135 -31 -55 -68 -120 -82 -145 -50 -89 -518 -905 -528 -920 -5 -8 -18
-31 -28 -50 -15 -28 -116 -204 -214 -375 -7 -11 -112 -195 -235 -410 -122
-214 -227 -397 -232 -405 -9 -14 -122 -211 -147 -255 -6 -11 -118 -207 -249
-435 -131 -228 -247 -431 -258 -450 -11 -19 -54 -96 -97 -170 -43 -74 -86
-151 -97 -170 -11 -19 -74 -130 -141 -245 -66 -116 -124 -218 -127 -227 -6
-14 359 -16 4455 -16 3647 0 4460 3 4456 13 -2 7 -57 105 -122 217 -64 111
-128 223 -142 248 -14 25 -49 86 -77 135 -29 50 -131 227 -227 395 -97 168
-185 321 -197 340 -11 19 -28 49 -37 65 -21 37 -391 681 -744 1295 -147 256
-277 481 -287 500 -11 19 -133 231 -270 470 -138 239 -258 449 -267 465 -9 17
-26 46 -37 65 -17 28 -180 310 -275 477 -11 18 -93 162 -184 319 -91 157 -176
305 -189 328 -13 22 -40 70 -61 106 -21 36 -47 82 -59 103 -51 90 -68 121
-156 272 -88 152 -268 466 -305 530 -71 125 -642 1117 -659 1145 -11 19 -24
42 -28 50 -8 17 -89 158 -103 180 -6 8 -14 25 -20 38 -5 12 -12 22 -15 22 -2
0 -11 -10 -19 -22z"/>
</g>
</svg>
